<svg xmlns="http://www.w3.org/2000/svg"  viewBox="0 0 48 48" width="96px" height="96px" baseProfile="basic"><path fill="#6d4c41" d="M41,33c0,4.418-3.582,8-8,8H15c-4.418,0-8-3.582-8-8V15c0-4.418,3.582-8,8-8h18c4.418,0,8,3.582,8,8	V33z"/><path fill="#ffca28" d="M24,7v1C15.16,8,8,15.16,8,24H7l1-4c0-6.63,5.37-12,12-12L24,7z"/><path fill="#ffca28" d="M41,24l-1,5c0,6.08-4.92,11-11,11l-5,1v-1c8.84,0,16-7.16,16-16H41z"/><path fill="#ffca28" d="M33,42H15c-4.963,0-9-4.038-9-9V15c0-4.962,4.037-9,9-9h18c4.963,0,9,4.038,9,9v18	C42,37.962,37.963,42,33,42z M15,8c-3.859,0-7,3.14-7,7v18c0,3.86,3.141,7,7,7h18c3.859,0,7-3.14,7-7V15c0-3.86-3.141-7-7-7H15z"/><path fill="#82b1ff" d="M38,16c0-3.314-2.686-6-6-6h-6c-8.837,0-16,7.163-16,16v6c0,3.314,2.686,6,6,6h6	c8.837,0,16-7.163,16-16V16z"/><path fill="#0277bd" d="M16,37c-2.757,0-5-2.243-5-5v-6c0-8.271,6.729-15,15-15h6c2.757,0,5,2.243,5,5v6	c0,8.271-6.729,15-15,15H16z"/><circle cx="24" cy="24" r="10" fill="#6d4c41"/><path fill="#448aff" d="M22.364,24c0,0-0.851-1.557-0.364-2.902c0,0,2.296-1.859,4.033-1.027	c1.736,0.832,1.492,4.842,1.492,4.842s-1.81,3.13-8.438,4.573c0,0,0.66,1.37,4.011,1.614c3.351,0.245,7.312-2.519,7.63-6.065	c0.318-3.546-1.076-6.872-4.793-7.753c0,0-0.714-0.122-1.005-0.514l-1.074,0.196c0,0-0.655-0.611-1.856,0.269	c-1.201,0.88-1.625,1.317-2.913,2.421c-0.685,0.587-1.003,0.416-0.954,0.856c0.049,0.44,0.538,3.106,0.538,3.106	s2.391,4.696,5.329,3.057c2.938-1.639,2.013-2.416,1.5-3.595c-0.351-0.807-2.549-0.978-2.72-0.391c0,0,0,0.636,0.22,0.978L22.364,24	z"/><path fill="#18ffff" d="M23.516,30.116c-0.116,0-0.231-0.004-0.345-0.013c-0.647-0.047-1.172-0.139-1.594-0.25	c5.155-1.667,6.74-4.313,6.813-4.439l0.117-0.204l0.015-0.236c0.048-0.782,0.172-4.736-2.059-5.805	c-0.433-0.207-0.911-0.312-1.423-0.312c-1.81,0-3.485,1.314-3.67,1.464l-0.217,0.175l-0.095,0.262	c-0.622,1.719,0.318,3.521,0.427,3.722l0.473,0.864l2.472-1.3l-0.44-0.686c0.294,0.037,0.529,0.125,0.623,0.188	c0.062,0.14,0.13,0.274,0.195,0.406c0.338,0.677,0.44,0.881-1.296,1.849c-0.266,0.148-0.521,0.221-0.779,0.221	c-1.32,0-2.649-1.91-3.106-2.737c-0.143-0.777-0.337-1.865-0.438-2.472c0.164-0.099,0.346-0.224,0.549-0.397	c0.358-0.308,0.651-0.564,0.912-0.792c0.666-0.584,1.106-0.97,1.94-1.581c0.348-0.255,0.551-0.283,0.622-0.283	c0.008,0.001,0.026,0,0.025-0.002l0.303,0.283l1.1-0.2c0.447,0.292,0.941,0.398,1.125,0.43c4.143,0.983,4.085,5.36,3.967,6.678	C29.471,27.857,26.176,30.116,23.516,30.116z"/><polygon fill="#ffca28" points="28,14 24,7 23,11 24,14"/><polygon fill="#8d6e63" points="20,14 24,7 24,14"/><polygon fill="#ffca28" points="14,20 7,24 11,25 14,24"/><polygon fill="#8d6e63" points="14,28 7,24 14,24"/><polygon fill="#ffca28" points="34,20 41,24 37,25 34,24"/><polygon fill="#8d6e63" points="34,28 41,24 34,24"/><polygon fill="#ffca28" points="28,34 24,41 23,37 24,34"/><polygon fill="#8d6e63" points="20,34 24,41 24,34"/><path fill="#ffca28" d="M24,35c-6.065,0-11-4.935-11-11s4.935-11,11-11s11,4.935,11,11S30.065,35,24,35z M24,15	c-4.963,0-9,4.038-9,9s4.037,9,9,9s9-4.038,9-9S28.963,15,24,15z"/><polygon fill="#ffca28" points="29.604,14.557 34,13.192 32.417,16.052 30.517,16.926"/><polygon fill="#8d6e63" points="32.945,17.672 34,13.192 30.517,16.926"/><polygon fill="#ffca28" points="18.396,14.557 14,13.192 15.583,16.052 17.483,16.926"/><polygon fill="#8d6e63" points="15.055,17.672 14,13.192 17.483,16.926"/><polygon fill="#8d6e63" points="18.396,33.443 14,34.808 15.583,31.948 17.483,31.074"/><polygon fill="#ffca28" points="15.055,30.328 14,34.808 17.483,31.074"/><polygon fill="#8d6e63" points="29.604,33.443 34,34.808 32.417,31.948 30.517,31.074"/><polygon fill="#ffca28" points="32.945,30.328 34,34.808 30.517,31.074"/></svg>